<svg xmlns="http://www.w3.org/2000/svg" width="104.963" height="81.544" viewBox="0 0 104.963 81.544">
  <g id="Group_328" data-name="Group 328" transform="translate(-147.669 -131.93)">
    <path id="Path_97" data-name="Path 97" d="M243.734,341.615h12.251V350.9a3.712,3.712,0,0,1-3.712,3.713h-8.54Z" transform="translate(-71.849 -156.828)" fill="#fff"/>
    <path id="Path_98" data-name="Path 98" d="M397.688,274.651a8.459,8.459,0,1,1-8.458-8.459A8.458,8.458,0,0,1,397.688,274.651Z" transform="translate(-174.341 -100.418)" fill="#264059"/>
    <path id="Path_99" data-name="Path 99" d="M209.744,340.28a3.652,3.652,0,0,1-3.652,3.653h-4a3.651,3.651,0,0,1-3.652-3.653l-5.228-29.834a3.651,3.651,0,0,1,3.652-3.654h9.228a3.654,3.654,0,0,1,3.652,3.654Z" transform="translate(-34.063 -130.782)" fill="#264059"/>
    <path id="Path_100" data-name="Path 100" d="M489.134,286.873h15.981a1.669,1.669,0,0,1,0,3.337v.011H489.134v-.009a1.669,1.669,0,1,1,0-3.337Z" transform="translate(-254.14 -115.885)" fill="#fff"/>
    <path id="Path_101" data-name="Path 101" d="M469.289,204.887l11.3-11.3a1.669,1.669,0,0,1,2.36,2.36l.007.008-11.3,11.3-.006-.006a1.669,1.669,0,1,1-2.361-2.36Z" transform="translate(-240.181 -45.756)" fill="#fff"/>
    <path id="Path_102" data-name="Path 102" d="M212.3,143.392a30.273,30.273,0,0,1-27.58,20.331H164.85v.024a17.406,17.406,0,0,0,0,34.809v.019h22.044a30.28,30.28,0,0,1,25.461,20.331H213.7V143.392Z" transform="translate(0 -8.573)" fill="#ff6d3a"/>
    <path id="Path_103" data-name="Path 103" d="M401.368,135.347V210.09h0a3.415,3.415,0,0,0,6.83,0h.02V135.347H408.2a3.416,3.416,0,1,0-6.832,0Z" transform="translate(-189.747)" fill="#fff"/>
    <path id="Path_104" data-name="Path 104" d="M181.971,258.9V224.047H164.85v.024a17.406,17.406,0,0,0,0,34.809v.019Z" transform="translate(0 -68.896)" fill="#264059"/>
    <path id="Path_105" data-name="Path 105" d="M471.675,336.347l11.3,11.3a1.669,1.669,0,0,1-2.36,2.36l-.008.007-11.3-11.3.007-.005a1.669,1.669,0,1,1,2.359-2.361Z" transform="translate(-240.201 -152.522)" fill="#fff"/>
  </g>
</svg>
