<svg xmlns="http://www.w3.org/2000/svg" width="117.52" height="124.898" viewBox="0 0 117.52 124.898">
  <g id="Group_327" data-name="Group 327" transform="translate(-241.692 -403.227)">
    <path id="Path_79" data-name="Path 79" d="M286.553,582.9c.348,1.577,2.074,3.262,5.879,3.262h61.552a1.821,1.821,0,0,1,0,3.642H292.432c-5.968,0-8.812-3.3-9.435-6.119a6.679,6.679,0,0,1,3.952-7.547,5.184,5.184,0,0,0,2.83-3.669L280.187,532.9a17.3,17.3,0,0,0-.874-2.653s0,0,0,0v0a15.18,15.18,0,0,0-3.542-5.2c-3.972-3.766-9.716-5.372-19.206-5.372a1.821,1.821,0,0,1,0-3.642c7.412,0,15.789.756,21.711,6.37a18.561,18.561,0,0,1,3.881,5.32h69.472a5.72,5.72,0,0,1,5.558,7.066l-8.5,35.071a5.7,5.7,0,0,1-5.558,4.371H293.066a8.657,8.657,0,0,1-4.586,5.228A3.074,3.074,0,0,0,286.553,582.9Z" transform="translate(-12.054 -104.187)" fill="#fbfeff"/>
    <path id="Path_80" data-name="Path 80" d="M853.137,1503.629a5.008,5.008,0,1,0,5.008,5.008A5.014,5.014,0,0,0,853.137,1503.629Zm0,7.417a2.409,2.409,0,1,1,2.409-2.409A2.411,2.411,0,0,1,853.137,1511.046Z" transform="translate(-560.165 -1016.439)" fill="#393c41"/>
    <path id="Path_81" data-name="Path 81" d="M1247.557,1503.629a5.008,5.008,0,1,0,5.008,5.008A5.014,5.014,0,0,0,1247.557,1503.629Zm0,7.417a2.409,2.409,0,1,1,2.409-2.409A2.411,2.411,0,0,1,1247.557,1511.046Z" transform="translate(-924.49 -1016.439)" fill="#393c41"/>
    <path id="Rectangle_104" data-name="Rectangle 104" d="M0,0H4.817a0,0,0,0,1,0,0V5.374A2.409,2.409,0,0,1,2.409,7.783h0A2.409,2.409,0,0,1,0,5.374V0A0,0,0,0,1,0,0Z" transform="translate(290.564 485.62)" fill="#fbfeff"/>
    <path id="Rectangle_105" data-name="Rectangle 105" d="M0,0H4.817a0,0,0,0,1,0,0V5.374A2.409,2.409,0,0,1,2.409,7.783h0A2.409,2.409,0,0,1,0,5.374V0A0,0,0,0,1,0,0Z" transform="translate(320.659 485.62)" fill="#fbfeff"/>
    <rect id="Rectangle_106" data-name="Rectangle 106" width="4.817" height="1.226" transform="translate(290.564 485.62)" fill="#cacdd2"/>
    <rect id="Rectangle_107" data-name="Rectangle 107" width="4.817" height="1.226" transform="translate(320.659 485.62)" fill="#cacdd2"/>
    <path id="Path_82" data-name="Path 82" d="M907.082,1561.98a.6.6,0,1,1-.6-.6A.6.6,0,0,1,907.082,1561.98Z" transform="translate(-613.507 -1069.782)" fill="#cacdd2"/>
    <circle id="Ellipse_16" data-name="Ellipse 16" cx="0.602" cy="0.602" r="0.602" transform="translate(322.216 492.198) rotate(-45)" fill="#cacdd2"/>
    <g id="Group_309" data-name="Group 309" transform="translate(241.692 410.838)">
      <g id="Group_308" data-name="Group 308" transform="translate(0 0)">
        <g id="Group_307" data-name="Group 307">
          <path id="Path_83" data-name="Path 83" d="M259.475,510.921h0a2.771,2.771,0,0,1-1.083-.217c-3.4-1.442-7.827-2.093-13.808-2.1a2.87,2.87,0,0,1-2.887-2.668,2.82,2.82,0,0,1,2.814-2.966c5.558,0,11.2.475,16.071,2.53A2.823,2.823,0,0,1,259.475,510.921Z" transform="translate(-241.692 -502.972)" fill="#fd1522"/>
        </g>
      </g>
    </g>
    <g id="Group_314" data-name="Group 314" transform="translate(295.913 423.523)">
      <g id="Group_311" data-name="Group 311" transform="translate(0 4.266)">
        <g id="Group_310" data-name="Group 310">
          <path id="Path_84" data-name="Path 84" d="M975.932,738.245a.911.911,0,0,0-1.183.506l-9.393,23.415,4.47,9.615,1.689.678,1.689.677,9.871-3.858,9.4-23.417a.911.911,0,0,0-.506-1.183Z" transform="translate(-964.36 -737.183)" fill="#fd1522"/>
          <path id="Path_85" data-name="Path 85" d="M961.142,762.068a1,1,0,0,1-.371-.072l-3.378-1.355a1,1,0,0,1-.532-.5l-4.47-9.615a1,1,0,0,1-.021-.791l9.393-23.415a1.909,1.909,0,0,1,2.479-1.06l16.034,6.432a1.909,1.909,0,0,1,1.06,2.479l-9.4,23.418a1,1,0,0,1-.562.557L961.5,762A1,1,0,0,1,961.142,762.068Zm-2.64-3.129L961.146,760l9.1-3.557,9.2-22.937-15.873-6.367-9.2,22.935Zm21.031-25.4h0Z" transform="translate(-952.298 -725.12)" fill="#fd1522"/>
        </g>
      </g>
      <g id="Group_312" data-name="Group 312" transform="translate(13.271 11.266)">
        <path id="Path_86" data-name="Path 86" d="M1144.55,833.691A2.733,2.733,0,1,0,1141,835.21,2.733,2.733,0,0,0,1144.55,833.691Z" transform="translate(-1138.284 -828.942)" fill="#fff"/>
        <path id="Path_87" data-name="Path 87" d="M1129.956,824.323a3.729,3.729,0,1,1,3.466-2.341h0A3.736,3.736,0,0,1,1129.956,824.323Zm0-5.467a1.739,1.739,0,1,0,.647.126A1.732,1.732,0,0,0,1129.96,818.857Zm2.537,2.755h0Z" transform="translate(-1126.231 -816.862)" fill="#fbfeff"/>
      </g>
      <g id="Group_313" data-name="Group 313" transform="translate(16.004 0)">
        <path id="Path_88" data-name="Path 88" d="M1170.123,669.214l-6.164,15.369a1,1,0,0,1-.925.626.974.974,0,0,1-.37-.074,1,1,0,0,1-.554-1.3l5.867-14.626Z" transform="translate(-1162.038 -669.214)" fill="#cacdd2"/>
      </g>
    </g>
    <g id="Group_320" data-name="Group 320" transform="translate(279.319 403.227)">
      <g id="Group_319" data-name="Group 319" transform="translate(0 0)">
        <g id="Group_315" data-name="Group 315" transform="translate(71.016 5.156)">
          <path id="Path_89" data-name="Path 89" d="M1669.506,470.8l1.521,3.071,3.391-.5-2.451,2.4,1.521,3.071-3.036-1.591-2.451,2.4.575-3.379-3.036-1.591,3.391-.5Z" transform="translate(-1665.54 -470.798)" fill="#fbfeff"/>
        </g>
        <g id="Group_316" data-name="Group 316">
          <path id="Path_90" data-name="Path 90" d="M737.272,403.227l-.008,1.584,1.5.5-1.509.482-.008,1.584-.925-1.286-1.509.482.938-1.277-.925-1.286,1.5.5Z" transform="translate(-734.818 -403.227)" fill="#fbfeff"/>
        </g>
        <g id="Group_317" data-name="Group 317" transform="translate(16.813 8.126)">
          <path id="Path_91" data-name="Path 91" d="M960.605,509.724,960.416,513l3.059,1.192-3.176.833-.189,3.278-1.774-2.763-3.176.833,2.079-2.541-1.774-2.763,3.059,1.192Z" transform="translate(-955.162 -509.724)" fill="#fbfeff"/>
        </g>
        <g id="Group_318" data-name="Group 318" transform="translate(71.224 45.399)">
          <path id="Path_92" data-name="Path 92" d="M1673.693,998.216l-.145,3.324,3.117,1.166-3.207.889-.145,3.325-1.837-2.775-3.207.889,2.072-2.6-1.837-2.775,3.117,1.165Z" transform="translate(-1668.269 -998.216)" fill="#fbfeff"/>
        </g>
      </g>
    </g>
    <g id="Group_326" data-name="Group 326" transform="translate(244.303 436.501)">
      <g id="Group_325" data-name="Group 325" transform="translate(0 0)">
        <g id="Group_321" data-name="Group 321" transform="translate(0 27.018)">
          <path id="Path_93" data-name="Path 93" d="M277.564,1201.911l1.1-3.247-2.75-2.046,3.427.039,1.1-3.247,1.022,3.271,3.427.039-2.8,1.983,1.022,3.271-2.75-2.046Z" transform="translate(-275.911 -1193.41)" fill="#fbfeff"/>
        </g>
        <g id="Group_322" data-name="Group 322" transform="translate(49.292 87.531)">
          <path id="Path_94" data-name="Path 94" d="M921.926,1989.4l1.126-1.115-.712-1.415,1.408.726,1.126-1.115-.255,1.564,1.408.726-1.566.24-.255,1.564-.713-1.415Z" transform="translate(-921.926 -1986.477)" fill="#fbfeff"/>
        </g>
        <g id="Group_323" data-name="Group 323" transform="translate(41.036 64.984)">
          <path id="Path_95" data-name="Path 95" d="M813.725,1696.695l2.451-2.184-1.32-3.006,2.835,1.656,2.451-2.184-.7,3.208,2.835,1.656-3.267.327-.7,3.208-1.32-3.006Z" transform="translate(-813.725 -1690.976)" fill="#fbfeff"/>
        </g>
        <g id="Group_324" data-name="Group 324" transform="translate(28.931)">
          <path id="Path_96" data-name="Path 96" d="M655.081,845.2l2.453-2.248-1.38-3.028,2.9,1.639,2.453-2.248-.663,3.261,2.9,1.639-3.306.377-.664,3.261-1.38-3.028Z" transform="translate(-655.081 -839.31)" fill="#fbfeff"/>
        </g>
      </g>
    </g>
  </g>
</svg>
